<svg xmlns="http://www.w3.org/2000/svg" xmlns:xlink="http://www.w3.org/1999/xlink" width="500" zoomAndPan="magnify" viewBox="0 0 375 374.999991" height="500" preserveAspectRatio="xMidYMid meet" version="1.0"><defs><g/><clipPath id="8416f380bf"><path d="M 11.378906 30.847656 L 71.542969 30.847656 L 71.542969 96.902344 L 11.378906 96.902344 Z M 11.378906 30.847656 " clip-rule="nonzero"/></clipPath><clipPath id="f79d17be3f"><path d="M 305.925781 30.847656 L 366.085938 30.847656 L 366.085938 96.902344 L 305.925781 96.902344 Z M 305.925781 30.847656 " clip-rule="nonzero"/></clipPath><clipPath id="e04a42405a"><path d="M 151.207031 86.046875 L 226.257812 86.046875 L 226.257812 369.277344 L 151.207031 369.277344 Z M 151.207031 86.046875 " clip-rule="nonzero"/></clipPath></defs><rect x="-37.5" width="450" fill="#ffffff" y="-37.499999" height="449.999989" fill-opacity="1"/><rect x="-37.5" width="450" fill="#ff914d" y="-37.499999" height="449.999989" fill-opacity="1"/><g fill="#ffffff" fill-opacity="1"><g transform="translate(390.210917, 40.067596)"><g><path d="M -321.078125 0 L -321.078125 248.953125 L -213.59375 57.421875 L -188.328125 57.421875 L -80.375 248.953125 L -80.375 0 L -39.046875 0 L -39.046875 326.125 L -82.671875 326.125 L -200.71875 114.375 L -319.234375 326.125 L -362.40625 326.125 L -362.40625 0 Z M -321.078125 0 "/></g></g></g><g clip-path="url(#8416f380bf)"><path fill="#ff914d" d="M 11.378906 30.847656 L 71.542969 30.847656 L 71.542969 96.882812 L 11.378906 96.882812 Z M 11.378906 30.847656 " fill-opacity="1" fill-rule="nonzero"/></g><g clip-path="url(#f79d17be3f)"><path fill="#ff914d" d="M 305.925781 30.847656 L 366.085938 30.847656 L 366.085938 96.882812 L 305.925781 96.882812 Z M 305.925781 30.847656 " fill-opacity="1" fill-rule="nonzero"/></g><g clip-path="url(#e04a42405a)"><path fill="#ff914d" d="M 151.207031 86.046875 L 226.257812 86.046875 L 226.257812 369.253906 L 151.207031 369.253906 Z M 151.207031 86.046875 " fill-opacity="1" fill-rule="nonzero"/></g><g fill="#000000" fill-opacity="1"><g transform="translate(49.19686, 350.693625)"><g><path d="M 274.21875 -289.375 L 161.6875 -289.375 L 161.6875 0 L 120.34375 0 L 120.34375 -289.375 L 7.8125 -289.375 L 7.8125 -326.125 L 274.21875 -326.125 Z M 274.21875 -289.375 "/></g></g></g></svg>